<svg xmlns="http://www.w3.org/2000/svg" viewBox="0 0 355 355"><rect width="355" height="355" rx="72" fill="#44B492"/><g fill="#fff" transform="translate(14 -12)"><rect x="41" y="125.0" width="142" height="25" rx="12.5"/><rect x="42" y="182.0" width="168" height="27" rx="13.5"/><rect x="41" y="241.0" width="105" height="25" rx="12.5"/><path transform="translate(0 15)" d="M237.612214,138.157654 C234.725783,135.28192 230.051254,135.279644 227.164823,138.157654 C224.278392,141.035663 224.278392,145.698831 227.164823,148.57684 C234.93988,156.329214 239.222735,166.601382 239.222735,177.499403 C239.222735,188.397423 234.93988,198.669591 227.164823,206.424696 C224.278392,209.30043 224.278392,213.965873 227.164823,216.841607 C228.608267,218.280384 230.497251,219 232.388518,219 C234.277503,219 236.16877,218.280384 237.612214,216.841607 C248.18012,206.304532 254,192.334147 254,177.499403 C254,162.665114 248.18012,148.694728 237.612214,138.157654 Z"/><path transform="translate(0 15)" d="M267.333026,113.158661 C264.51049,110.280446 259.939438,110.280446 257.116902,113.158661 C254.294366,116.039154 254.294366,120.709078 257.116902,123.586837 C285.703837,152.763042 285.703837,200.237641 257.116902,229.413847 C254.294366,232.292061 254.294366,236.96153 257.116902,239.839744 C258.528393,241.280219 260.375562,242 262.224964,242 C264.074365,242 265.921535,241.279763 267.333026,239.837011 C301.555658,204.912576 301.555658,148.084007 267.333026,113.158661 Z"/></g></svg>